<svg width="1594" height="968" viewBox="0 0 1594 968" fill="none" xmlns="http://www.w3.org/2000/svg">
<g opacity="0.6" clip-path="url(#clip0_133_4)">
<path d="M105.64 356.268C164.028 285.781 279.333 376.969 446.403 337.061C591.106 302.479 599.431 210.622 715.046 215.177C799.512 218.487 891.553 269.755 942.138 359.072C997.923 457.551 977.644 557.81 971.951 582.139C946.539 691.263 871.114 748.826 844.506 768.487C734.877 849.44 611.858 835.254 552.841 828.479C331.151 802.957 93.8125 636.583 83.2448 455.701C81.8403 432.02 79.2841 388.098 105.64 356.268Z" fill="url(#paint0_linear_133_4)"/>
</g>
<g opacity="0.3">
<mask id="mask0_133_4" style="mask-type:alpha" maskUnits="userSpaceOnUse" x="1468" y="546" width="11" height="11">
<path d="M1473.8 556.425C1476.55 556.425 1478.77 554.091 1478.77 551.212C1478.77 548.334 1476.55 546 1473.8 546C1471.05 546 1468.83 548.334 1468.83 551.212C1468.83 554.091 1471.05 556.425 1473.8 556.425Z" fill="url(#paint1_linear_133_4)"/>
</mask>
<g mask="url(#mask0_133_4)">
<path d="M1473.8 556.425C1476.55 556.425 1478.77 554.091 1478.77 551.212C1478.77 548.334 1476.55 546 1473.8 546C1471.05 546 1468.83 548.334 1468.83 551.212C1468.83 554.091 1471.05 556.425 1473.8 556.425Z" fill="url(#paint2_linear_133_4)"/>
</g>
<mask id="mask1_133_4" style="mask-type:alpha" maskUnits="userSpaceOnUse" x="1497" y="546" width="11" height="11">
<path d="M1502.61 556.425C1505.35 556.425 1507.58 554.091 1507.58 551.212C1507.58 548.334 1505.35 546 1502.61 546C1499.86 546 1497.63 548.334 1497.63 551.212C1497.63 554.091 1499.86 556.425 1502.61 556.425Z" fill="url(#paint3_linear_133_4)"/>
</mask>
<g mask="url(#mask1_133_4)">
<path d="M1502.61 556.425C1505.35 556.425 1507.58 554.091 1507.58 551.212C1507.58 548.334 1505.35 546 1502.61 546C1499.86 546 1497.63 548.334 1497.63 551.212C1497.63 554.091 1499.86 556.425 1502.61 556.425Z" fill="url(#paint4_linear_133_4)"/>
</g>
<mask id="mask2_133_4" style="mask-type:alpha" maskUnits="userSpaceOnUse" x="1526" y="546" width="11" height="11">
<path d="M1531.41 556.425C1534.16 556.425 1536.39 554.091 1536.39 551.212C1536.39 548.334 1534.16 546 1531.41 546C1528.67 546 1526.44 548.334 1526.44 551.212C1526.44 554.091 1528.67 556.425 1531.41 556.425Z" fill="url(#paint5_linear_133_4)"/>
</mask>
<g mask="url(#mask2_133_4)">
<path d="M1531.41 556.425C1534.16 556.425 1536.39 554.091 1536.39 551.212C1536.39 548.334 1534.16 546 1531.41 546C1528.67 546 1526.44 548.334 1526.44 551.212C1526.44 554.091 1528.67 556.425 1531.41 556.425Z" fill="url(#paint6_linear_133_4)"/>
</g>
<mask id="mask3_133_4" style="mask-type:alpha" maskUnits="userSpaceOnUse" x="1555" y="546" width="11" height="11">
<path d="M1560.22 556.425C1562.97 556.425 1565.19 554.091 1565.19 551.212C1565.19 548.334 1562.97 546 1560.22 546C1557.47 546 1555.25 548.334 1555.25 551.212C1555.25 554.091 1557.47 556.425 1560.22 556.425Z" fill="url(#paint7_linear_133_4)"/>
</mask>
<g mask="url(#mask3_133_4)">
<path d="M1560.22 556.425C1562.97 556.425 1565.19 554.091 1565.19 551.212C1565.19 548.334 1562.97 546 1560.22 546C1557.47 546 1555.25 548.334 1555.25 551.212C1555.25 554.091 1557.47 556.425 1560.22 556.425Z" fill="url(#paint8_linear_133_4)"/>
</g>
<mask id="mask4_133_4" style="mask-type:alpha" maskUnits="userSpaceOnUse" x="1584" y="546" width="10" height="11">
<path d="M1589.03 556.425C1591.77 556.425 1594 554.091 1594 551.212C1594 548.334 1591.77 546 1589.03 546C1586.28 546 1584.05 548.334 1584.05 551.212C1584.05 554.091 1586.28 556.425 1589.03 556.425Z" fill="url(#paint9_linear_133_4)"/>
</mask>
<g mask="url(#mask4_133_4)">
<path d="M1589.03 556.425C1591.77 556.425 1594 554.091 1594 551.212C1594 548.334 1591.77 546 1589.03 546C1586.28 546 1584.05 548.334 1584.05 551.212C1584.05 554.091 1586.28 556.425 1589.03 556.425Z" fill="url(#paint10_linear_133_4)"/>
</g>
<mask id="mask5_133_4" style="mask-type:alpha" maskUnits="userSpaceOnUse" x="1468" y="572" width="11" height="11">
<path d="M1473.8 582.596C1476.55 582.596 1478.77 580.262 1478.77 577.383C1478.77 574.505 1476.55 572.171 1473.8 572.171C1471.05 572.171 1468.83 574.505 1468.83 577.383C1468.83 580.262 1471.05 582.596 1473.8 582.596Z" fill="url(#paint11_linear_133_4)"/>
</mask>
<g mask="url(#mask5_133_4)">
<path d="M1473.8 582.596C1476.55 582.596 1478.77 580.262 1478.77 577.383C1478.77 574.505 1476.55 572.171 1473.8 572.171C1471.05 572.171 1468.83 574.505 1468.83 577.383C1468.83 580.262 1471.05 582.596 1473.8 582.596Z" fill="url(#paint12_linear_133_4)"/>
</g>
<mask id="mask6_133_4" style="mask-type:alpha" maskUnits="userSpaceOnUse" x="1497" y="572" width="11" height="11">
<path d="M1502.61 582.596C1505.35 582.596 1507.58 580.262 1507.58 577.383C1507.58 574.505 1505.35 572.171 1502.61 572.171C1499.86 572.171 1497.63 574.505 1497.63 577.383C1497.63 580.262 1499.86 582.596 1502.61 582.596Z" fill="url(#paint13_linear_133_4)"/>
</mask>
<g mask="url(#mask6_133_4)">
<path d="M1502.61 582.596C1505.35 582.596 1507.58 580.262 1507.58 577.383C1507.58 574.505 1505.35 572.171 1502.61 572.171C1499.86 572.171 1497.63 574.505 1497.63 577.383C1497.63 580.262 1499.86 582.596 1502.61 582.596Z" fill="url(#paint14_linear_133_4)"/>
</g>
<mask id="mask7_133_4" style="mask-type:alpha" maskUnits="userSpaceOnUse" x="1526" y="572" width="11" height="11">
<path d="M1531.41 582.596C1534.16 582.596 1536.39 580.262 1536.39 577.383C1536.39 574.505 1534.16 572.171 1531.41 572.171C1528.67 572.171 1526.44 574.505 1526.44 577.383C1526.44 580.262 1528.67 582.596 1531.41 582.596Z" fill="url(#paint15_linear_133_4)"/>
</mask>
<g mask="url(#mask7_133_4)">
<path d="M1531.41 582.596C1534.16 582.596 1536.39 580.262 1536.39 577.383C1536.39 574.505 1534.16 572.171 1531.41 572.171C1528.67 572.171 1526.44 574.505 1526.44 577.383C1526.44 580.262 1528.67 582.596 1531.41 582.596Z" fill="url(#paint16_linear_133_4)"/>
</g>
<mask id="mask8_133_4" style="mask-type:alpha" maskUnits="userSpaceOnUse" x="1555" y="572" width="11" height="11">
<path d="M1560.22 582.596C1562.97 582.596 1565.19 580.262 1565.19 577.383C1565.19 574.505 1562.97 572.171 1560.22 572.171C1557.47 572.171 1555.25 574.505 1555.25 577.383C1555.25 580.262 1557.47 582.596 1560.22 582.596Z" fill="url(#paint17_linear_133_4)"/>
</mask>
<g mask="url(#mask8_133_4)">
<path d="M1560.22 582.596C1562.97 582.596 1565.19 580.262 1565.19 577.383C1565.19 574.505 1562.97 572.171 1560.22 572.171C1557.47 572.171 1555.25 574.505 1555.25 577.383C1555.25 580.262 1557.47 582.596 1560.22 582.596Z" fill="url(#paint18_linear_133_4)"/>
</g>
<mask id="mask9_133_4" style="mask-type:alpha" maskUnits="userSpaceOnUse" x="1584" y="572" width="10" height="11">
<path d="M1589.03 582.596C1591.77 582.596 1594 580.262 1594 577.383C1594 574.505 1591.77 572.171 1589.03 572.171C1586.28 572.171 1584.05 574.505 1584.05 577.383C1584.05 580.262 1586.28 582.596 1589.03 582.596Z" fill="url(#paint19_linear_133_4)"/>
</mask>
<g mask="url(#mask9_133_4)">
<path d="M1589.03 582.596C1591.77 582.596 1594 580.262 1594 577.383C1594 574.505 1591.77 572.171 1589.03 572.171C1586.28 572.171 1584.05 574.505 1584.05 577.383C1584.05 580.262 1586.28 582.596 1589.03 582.596Z" fill="url(#paint20_linear_133_4)"/>
</g>
<mask id="mask10_133_4" style="mask-type:alpha" maskUnits="userSpaceOnUse" x="1468" y="598" width="11" height="11">
<path d="M1473.8 608.712C1476.55 608.712 1478.77 606.379 1478.77 603.5C1478.77 600.621 1476.55 598.287 1473.8 598.287C1471.05 598.287 1468.83 600.621 1468.83 603.5C1468.83 606.379 1471.05 608.712 1473.8 608.712Z" fill="url(#paint21_linear_133_4)"/>
</mask>
<g mask="url(#mask10_133_4)">
<path d="M1473.8 608.712C1476.55 608.712 1478.77 606.379 1478.77 603.5C1478.77 600.621 1476.55 598.287 1473.8 598.287C1471.05 598.287 1468.83 600.621 1468.83 603.5C1468.83 606.379 1471.05 608.712 1473.8 608.712Z" fill="url(#paint22_linear_133_4)"/>
</g>
<mask id="mask11_133_4" style="mask-type:alpha" maskUnits="userSpaceOnUse" x="1497" y="598" width="11" height="11">
<path d="M1502.61 608.712C1505.35 608.712 1507.58 606.379 1507.58 603.5C1507.58 600.621 1505.35 598.287 1502.61 598.287C1499.86 598.287 1497.63 600.621 1497.63 603.5C1497.63 606.379 1499.86 608.712 1502.61 608.712Z" fill="url(#paint23_linear_133_4)"/>
</mask>
<g mask="url(#mask11_133_4)">
<path d="M1502.61 608.712C1505.35 608.712 1507.58 606.379 1507.58 603.5C1507.58 600.621 1505.35 598.287 1502.61 598.287C1499.86 598.287 1497.63 600.621 1497.63 603.5C1497.63 606.379 1499.86 608.712 1502.61 608.712Z" fill="url(#paint24_linear_133_4)"/>
</g>
<mask id="mask12_133_4" style="mask-type:alpha" maskUnits="userSpaceOnUse" x="1526" y="598" width="11" height="11">
<path d="M1531.41 608.712C1534.16 608.712 1536.39 606.379 1536.39 603.5C1536.39 600.621 1534.16 598.287 1531.41 598.287C1528.67 598.287 1526.44 600.621 1526.44 603.5C1526.44 606.379 1528.67 608.712 1531.41 608.712Z" fill="url(#paint25_linear_133_4)"/>
</mask>
<g mask="url(#mask12_133_4)">
<path d="M1531.41 608.712C1534.16 608.712 1536.39 606.379 1536.39 603.5C1536.39 600.621 1534.16 598.287 1531.41 598.287C1528.67 598.287 1526.44 600.621 1526.44 603.5C1526.44 606.379 1528.67 608.712 1531.41 608.712Z" fill="url(#paint26_linear_133_4)"/>
</g>
<mask id="mask13_133_4" style="mask-type:alpha" maskUnits="userSpaceOnUse" x="1555" y="598" width="11" height="11">
<path d="M1560.22 608.712C1562.97 608.712 1565.19 606.379 1565.19 603.5C1565.19 600.621 1562.97 598.287 1560.22 598.287C1557.47 598.287 1555.25 600.621 1555.25 603.5C1555.25 606.379 1557.47 608.712 1560.22 608.712Z" fill="url(#paint27_linear_133_4)"/>
</mask>
<g mask="url(#mask13_133_4)">
<path d="M1560.22 608.712C1562.97 608.712 1565.19 606.379 1565.19 603.5C1565.19 600.621 1562.97 598.287 1560.22 598.287C1557.47 598.287 1555.25 600.621 1555.25 603.5C1555.25 606.379 1557.47 608.712 1560.22 608.712Z" fill="url(#paint28_linear_133_4)"/>
</g>
<mask id="mask14_133_4" style="mask-type:alpha" maskUnits="userSpaceOnUse" x="1584" y="598" width="10" height="11">
<path d="M1589.03 608.712C1591.77 608.712 1594 606.379 1594 603.5C1594 600.621 1591.77 598.287 1589.03 598.287C1586.28 598.287 1584.05 600.621 1584.05 603.5C1584.05 606.379 1586.28 608.712 1589.03 608.712Z" fill="url(#paint29_linear_133_4)"/>
</mask>
<g mask="url(#mask14_133_4)">
<path d="M1589.03 608.712C1591.77 608.712 1594 606.379 1594 603.5C1594 600.621 1591.77 598.287 1589.03 598.287C1586.28 598.287 1584.05 600.621 1584.05 603.5C1584.05 606.379 1586.28 608.712 1589.03 608.712Z" fill="url(#paint30_linear_133_4)"/>
</g>
<mask id="mask15_133_4" style="mask-type:alpha" maskUnits="userSpaceOnUse" x="1468" y="624" width="11" height="11">
<path d="M1473.8 634.883C1476.55 634.883 1478.77 632.55 1478.77 629.671C1478.77 626.792 1476.55 624.458 1473.8 624.458C1471.05 624.458 1468.83 626.792 1468.83 629.671C1468.83 632.55 1471.05 634.883 1473.8 634.883Z" fill="url(#paint31_linear_133_4)"/>
</mask>
<g mask="url(#mask15_133_4)">
<path d="M1473.8 634.883C1476.55 634.883 1478.77 632.55 1478.77 629.671C1478.77 626.792 1476.55 624.458 1473.8 624.458C1471.05 624.458 1468.83 626.792 1468.83 629.671C1468.83 632.55 1471.05 634.883 1473.8 634.883Z" fill="url(#paint32_linear_133_4)"/>
</g>
<mask id="mask16_133_4" style="mask-type:alpha" maskUnits="userSpaceOnUse" x="1497" y="624" width="11" height="11">
<path d="M1502.61 634.883C1505.35 634.883 1507.58 632.55 1507.58 629.671C1507.58 626.792 1505.35 624.458 1502.61 624.458C1499.86 624.458 1497.63 626.792 1497.63 629.671C1497.63 632.55 1499.86 634.883 1502.61 634.883Z" fill="url(#paint33_linear_133_4)"/>
</mask>
<g mask="url(#mask16_133_4)">
<path d="M1502.61 634.883C1505.35 634.883 1507.58 632.55 1507.58 629.671C1507.58 626.792 1505.35 624.458 1502.61 624.458C1499.86 624.458 1497.63 626.792 1497.63 629.671C1497.63 632.55 1499.86 634.883 1502.61 634.883Z" fill="url(#paint34_linear_133_4)"/>
</g>
<mask id="mask17_133_4" style="mask-type:alpha" maskUnits="userSpaceOnUse" x="1526" y="624" width="11" height="11">
<path d="M1531.41 634.883C1534.16 634.883 1536.39 632.55 1536.39 629.671C1536.39 626.792 1534.16 624.458 1531.41 624.458C1528.67 624.458 1526.44 626.792 1526.44 629.671C1526.44 632.55 1528.67 634.883 1531.41 634.883Z" fill="url(#paint35_linear_133_4)"/>
</mask>
<g mask="url(#mask17_133_4)">
<path d="M1531.41 634.883C1534.16 634.883 1536.39 632.55 1536.39 629.671C1536.39 626.792 1534.16 624.458 1531.41 624.458C1528.67 624.458 1526.44 626.792 1526.44 629.671C1526.44 632.55 1528.67 634.883 1531.41 634.883Z" fill="url(#paint36_linear_133_4)"/>
</g>
<mask id="mask18_133_4" style="mask-type:alpha" maskUnits="userSpaceOnUse" x="1555" y="624" width="11" height="11">
<path d="M1560.22 634.883C1562.97 634.883 1565.19 632.55 1565.19 629.671C1565.19 626.792 1562.97 624.458 1560.22 624.458C1557.47 624.458 1555.25 626.792 1555.25 629.671C1555.25 632.55 1557.47 634.883 1560.22 634.883Z" fill="url(#paint37_linear_133_4)"/>
</mask>
<g mask="url(#mask18_133_4)">
<path d="M1560.22 634.883C1562.97 634.883 1565.19 632.55 1565.19 629.671C1565.19 626.792 1562.97 624.458 1560.22 624.458C1557.47 624.458 1555.25 626.792 1555.25 629.671C1555.25 632.55 1557.47 634.883 1560.22 634.883Z" fill="url(#paint38_linear_133_4)"/>
</g>
<mask id="mask19_133_4" style="mask-type:alpha" maskUnits="userSpaceOnUse" x="1584" y="624" width="10" height="11">
<path d="M1589.03 634.883C1591.77 634.883 1594 632.55 1594 629.671C1594 626.792 1591.77 624.458 1589.03 624.458C1586.28 624.458 1584.05 626.792 1584.05 629.671C1584.05 632.55 1586.28 634.883 1589.03 634.883Z" fill="url(#paint39_linear_133_4)"/>
</mask>
<g mask="url(#mask19_133_4)">
<path d="M1589.03 634.883C1591.77 634.883 1594 632.55 1594 629.671C1594 626.792 1591.77 624.458 1589.03 624.458C1586.28 624.458 1584.05 626.792 1584.05 629.671C1584.05 632.55 1586.28 634.883 1589.03 634.883Z" fill="url(#paint40_linear_133_4)"/>
</g>
<mask id="mask20_133_4" style="mask-type:alpha" maskUnits="userSpaceOnUse" x="1468" y="650" width="11" height="11">
<path d="M1473.8 661C1476.55 661 1478.77 658.666 1478.77 655.788C1478.77 652.909 1476.55 650.575 1473.8 650.575C1471.05 650.575 1468.83 652.909 1468.83 655.788C1468.83 658.666 1471.05 661 1473.8 661Z" fill="url(#paint41_linear_133_4)"/>
</mask>
<g mask="url(#mask20_133_4)">
<path d="M1473.8 661C1476.55 661 1478.77 658.666 1478.77 655.788C1478.77 652.909 1476.55 650.575 1473.8 650.575C1471.05 650.575 1468.83 652.909 1468.83 655.788C1468.83 658.666 1471.05 661 1473.8 661Z" fill="url(#paint42_linear_133_4)"/>
</g>
<mask id="mask21_133_4" style="mask-type:alpha" maskUnits="userSpaceOnUse" x="1497" y="650" width="11" height="11">
<path d="M1502.61 661C1505.35 661 1507.58 658.666 1507.58 655.788C1507.58 652.909 1505.35 650.575 1502.61 650.575C1499.86 650.575 1497.63 652.909 1497.63 655.788C1497.63 658.666 1499.86 661 1502.61 661Z" fill="url(#paint43_linear_133_4)"/>
</mask>
<g mask="url(#mask21_133_4)">
<path d="M1502.61 661C1505.35 661 1507.58 658.666 1507.58 655.788C1507.58 652.909 1505.35 650.575 1502.61 650.575C1499.86 650.575 1497.63 652.909 1497.63 655.788C1497.63 658.666 1499.86 661 1502.61 661Z" fill="url(#paint44_linear_133_4)"/>
</g>
<mask id="mask22_133_4" style="mask-type:alpha" maskUnits="userSpaceOnUse" x="1526" y="650" width="11" height="11">
<path d="M1531.41 661C1534.16 661 1536.39 658.666 1536.39 655.788C1536.39 652.909 1534.16 650.575 1531.41 650.575C1528.67 650.575 1526.44 652.909 1526.44 655.788C1526.44 658.666 1528.67 661 1531.41 661Z" fill="url(#paint45_linear_133_4)"/>
</mask>
<g mask="url(#mask22_133_4)">
<path d="M1531.41 661C1534.16 661 1536.39 658.666 1536.39 655.788C1536.39 652.909 1534.16 650.575 1531.41 650.575C1528.67 650.575 1526.44 652.909 1526.44 655.788C1526.44 658.666 1528.67 661 1531.41 661Z" fill="url(#paint46_linear_133_4)"/>
</g>
<mask id="mask23_133_4" style="mask-type:alpha" maskUnits="userSpaceOnUse" x="1555" y="650" width="11" height="11">
<path d="M1560.22 661C1562.97 661 1565.19 658.666 1565.19 655.788C1565.19 652.909 1562.97 650.575 1560.22 650.575C1557.47 650.575 1555.25 652.909 1555.25 655.788C1555.25 658.666 1557.47 661 1560.22 661Z" fill="url(#paint47_linear_133_4)"/>
</mask>
<g mask="url(#mask23_133_4)">
<path d="M1560.22 661C1562.97 661 1565.19 658.666 1565.19 655.788C1565.19 652.909 1562.97 650.575 1560.22 650.575C1557.47 650.575 1555.25 652.909 1555.25 655.788C1555.25 658.666 1557.47 661 1560.22 661Z" fill="url(#paint48_linear_133_4)"/>
</g>
<mask id="mask24_133_4" style="mask-type:alpha" maskUnits="userSpaceOnUse" x="1584" y="650" width="10" height="11">
<path d="M1589.03 661C1591.77 661 1594 658.666 1594 655.788C1594 652.909 1591.77 650.575 1589.03 650.575C1586.28 650.575 1584.05 652.909 1584.05 655.788C1584.05 658.666 1586.28 661 1589.03 661Z" fill="url(#paint49_linear_133_4)"/>
</mask>
<g mask="url(#mask24_133_4)">
<path d="M1589.03 661C1591.77 661 1594 658.666 1594 655.788C1594 652.909 1591.77 650.575 1589.03 650.575C1586.28 650.575 1584.05 652.909 1584.05 655.788C1584.05 658.666 1586.28 661 1589.03 661Z" fill="url(#paint50_linear_133_4)"/>
</g>
</g>
<defs>
<linearGradient id="paint0_linear_133_4" x1="661.945" y1="69.8267" x2="418.254" y2="768.36" gradientUnits="userSpaceOnUse">
<stop stop-color="#F3F7FF"/>
<stop offset="1" stop-color="#DEEEFE"/>
</linearGradient>
<linearGradient id="paint1_linear_133_4" x1="1521.14" y1="677.134" x2="1447.13" y2="497.845" gradientUnits="userSpaceOnUse">
<stop/>
<stop offset="1" stop-color="white"/>
</linearGradient>
<linearGradient id="paint2_linear_133_4" x1="1521.14" y1="677.134" x2="1447.13" y2="497.845" gradientUnits="userSpaceOnUse">
<stop stop-color="#97C3F9"/>
<stop offset="1" stop-color="#93C1F9"/>
</linearGradient>
<linearGradient id="paint3_linear_133_4" x1="1546.07" y1="666.843" x2="1472.05" y2="487.554" gradientUnits="userSpaceOnUse">
<stop/>
<stop offset="1" stop-color="white"/>
</linearGradient>
<linearGradient id="paint4_linear_133_4" x1="1546.07" y1="666.843" x2="1472.05" y2="487.554" gradientUnits="userSpaceOnUse">
<stop stop-color="#97C3F9"/>
<stop offset="1" stop-color="#93C1F9"/>
</linearGradient>
<linearGradient id="paint5_linear_133_4" x1="1571" y1="656.551" x2="1496.98" y2="477.263" gradientUnits="userSpaceOnUse">
<stop/>
<stop offset="1" stop-color="white"/>
</linearGradient>
<linearGradient id="paint6_linear_133_4" x1="1571" y1="656.551" x2="1496.98" y2="477.263" gradientUnits="userSpaceOnUse">
<stop stop-color="#97C3F9"/>
<stop offset="1" stop-color="#93C1F9"/>
</linearGradient>
<linearGradient id="paint7_linear_133_4" x1="1595.93" y1="646.259" x2="1521.91" y2="466.971" gradientUnits="userSpaceOnUse">
<stop/>
<stop offset="1" stop-color="white"/>
</linearGradient>
<linearGradient id="paint8_linear_133_4" x1="1595.93" y1="646.259" x2="1521.91" y2="466.971" gradientUnits="userSpaceOnUse">
<stop stop-color="#97C3F9"/>
<stop offset="1" stop-color="#93C1F9"/>
</linearGradient>
<linearGradient id="paint9_linear_133_4" x1="1620.86" y1="635.968" x2="1546.84" y2="456.679" gradientUnits="userSpaceOnUse">
<stop/>
<stop offset="1" stop-color="white"/>
</linearGradient>
<linearGradient id="paint10_linear_133_4" x1="1620.86" y1="635.968" x2="1546.84" y2="456.679" gradientUnits="userSpaceOnUse">
<stop stop-color="#97C3F9"/>
<stop offset="1" stop-color="#93C1F9"/>
</linearGradient>
<linearGradient id="paint11_linear_133_4" x1="1512.64" y1="680.645" x2="1438.62" y2="501.358" gradientUnits="userSpaceOnUse">
<stop/>
<stop offset="1" stop-color="white"/>
</linearGradient>
<linearGradient id="paint12_linear_133_4" x1="1512.64" y1="680.645" x2="1438.62" y2="501.358" gradientUnits="userSpaceOnUse">
<stop stop-color="#97C3F9"/>
<stop offset="1" stop-color="#93C1F9"/>
</linearGradient>
<linearGradient id="paint13_linear_133_4" x1="1537.57" y1="670.354" x2="1463.55" y2="491.066" gradientUnits="userSpaceOnUse">
<stop/>
<stop offset="1" stop-color="white"/>
</linearGradient>
<linearGradient id="paint14_linear_133_4" x1="1537.57" y1="670.354" x2="1463.55" y2="491.066" gradientUnits="userSpaceOnUse">
<stop stop-color="#97C3F9"/>
<stop offset="1" stop-color="#93C1F9"/>
</linearGradient>
<linearGradient id="paint15_linear_133_4" x1="1562.49" y1="660.062" x2="1488.48" y2="480.775" gradientUnits="userSpaceOnUse">
<stop/>
<stop offset="1" stop-color="white"/>
</linearGradient>
<linearGradient id="paint16_linear_133_4" x1="1562.49" y1="660.062" x2="1488.48" y2="480.775" gradientUnits="userSpaceOnUse">
<stop stop-color="#97C3F9"/>
<stop offset="1" stop-color="#93C1F9"/>
</linearGradient>
<linearGradient id="paint17_linear_133_4" x1="1587.42" y1="649.771" x2="1513.41" y2="470.483" gradientUnits="userSpaceOnUse">
<stop/>
<stop offset="1" stop-color="white"/>
</linearGradient>
<linearGradient id="paint18_linear_133_4" x1="1587.42" y1="649.771" x2="1513.41" y2="470.483" gradientUnits="userSpaceOnUse">
<stop stop-color="#97C3F9"/>
<stop offset="1" stop-color="#93C1F9"/>
</linearGradient>
<linearGradient id="paint19_linear_133_4" x1="1612.35" y1="639.479" x2="1538.33" y2="460.192" gradientUnits="userSpaceOnUse">
<stop/>
<stop offset="1" stop-color="white"/>
</linearGradient>
<linearGradient id="paint20_linear_133_4" x1="1612.35" y1="639.479" x2="1538.33" y2="460.192" gradientUnits="userSpaceOnUse">
<stop stop-color="#97C3F9"/>
<stop offset="1" stop-color="#93C1F9"/>
</linearGradient>
<linearGradient id="paint21_linear_133_4" x1="1504.13" y1="684.158" x2="1430.11" y2="504.869" gradientUnits="userSpaceOnUse">
<stop/>
<stop offset="1" stop-color="white"/>
</linearGradient>
<linearGradient id="paint22_linear_133_4" x1="1504.13" y1="684.158" x2="1430.11" y2="504.869" gradientUnits="userSpaceOnUse">
<stop stop-color="#97C3F9"/>
<stop offset="1" stop-color="#93C1F9"/>
</linearGradient>
<linearGradient id="paint23_linear_133_4" x1="1529.06" y1="673.866" x2="1455.04" y2="494.578" gradientUnits="userSpaceOnUse">
<stop/>
<stop offset="1" stop-color="white"/>
</linearGradient>
<linearGradient id="paint24_linear_133_4" x1="1529.06" y1="673.866" x2="1455.04" y2="494.578" gradientUnits="userSpaceOnUse">
<stop stop-color="#97C3F9"/>
<stop offset="1" stop-color="#93C1F9"/>
</linearGradient>
<linearGradient id="paint25_linear_133_4" x1="1553.99" y1="663.575" x2="1479.97" y2="484.286" gradientUnits="userSpaceOnUse">
<stop/>
<stop offset="1" stop-color="white"/>
</linearGradient>
<linearGradient id="paint26_linear_133_4" x1="1553.99" y1="663.575" x2="1479.97" y2="484.286" gradientUnits="userSpaceOnUse">
<stop stop-color="#97C3F9"/>
<stop offset="1" stop-color="#93C1F9"/>
</linearGradient>
<linearGradient id="paint27_linear_133_4" x1="1578.92" y1="653.283" x2="1504.9" y2="473.995" gradientUnits="userSpaceOnUse">
<stop/>
<stop offset="1" stop-color="white"/>
</linearGradient>
<linearGradient id="paint28_linear_133_4" x1="1578.92" y1="653.283" x2="1504.9" y2="473.995" gradientUnits="userSpaceOnUse">
<stop stop-color="#97C3F9"/>
<stop offset="1" stop-color="#93C1F9"/>
</linearGradient>
<linearGradient id="paint29_linear_133_4" x1="1603.84" y1="642.992" x2="1529.83" y2="463.703" gradientUnits="userSpaceOnUse">
<stop/>
<stop offset="1" stop-color="white"/>
</linearGradient>
<linearGradient id="paint30_linear_133_4" x1="1603.84" y1="642.992" x2="1529.83" y2="463.703" gradientUnits="userSpaceOnUse">
<stop stop-color="#97C3F9"/>
<stop offset="1" stop-color="#93C1F9"/>
</linearGradient>
<linearGradient id="paint31_linear_133_4" x1="1495.62" y1="687.67" x2="1421.61" y2="508.381" gradientUnits="userSpaceOnUse">
<stop/>
<stop offset="1" stop-color="white"/>
</linearGradient>
<linearGradient id="paint32_linear_133_4" x1="1495.62" y1="687.67" x2="1421.61" y2="508.381" gradientUnits="userSpaceOnUse">
<stop stop-color="#97C3F9"/>
<stop offset="1" stop-color="#93C1F9"/>
</linearGradient>
<linearGradient id="paint33_linear_133_4" x1="1520.55" y1="677.378" x2="1446.53" y2="498.09" gradientUnits="userSpaceOnUse">
<stop/>
<stop offset="1" stop-color="white"/>
</linearGradient>
<linearGradient id="paint34_linear_133_4" x1="1520.55" y1="677.378" x2="1446.53" y2="498.09" gradientUnits="userSpaceOnUse">
<stop stop-color="#97C3F9"/>
<stop offset="1" stop-color="#93C1F9"/>
</linearGradient>
<linearGradient id="paint35_linear_133_4" x1="1545.48" y1="667.087" x2="1471.46" y2="487.798" gradientUnits="userSpaceOnUse">
<stop/>
<stop offset="1" stop-color="white"/>
</linearGradient>
<linearGradient id="paint36_linear_133_4" x1="1545.48" y1="667.087" x2="1471.46" y2="487.798" gradientUnits="userSpaceOnUse">
<stop stop-color="#97C3F9"/>
<stop offset="1" stop-color="#93C1F9"/>
</linearGradient>
<linearGradient id="paint37_linear_133_4" x1="1570.41" y1="656.795" x2="1496.39" y2="477.507" gradientUnits="userSpaceOnUse">
<stop/>
<stop offset="1" stop-color="white"/>
</linearGradient>
<linearGradient id="paint38_linear_133_4" x1="1570.41" y1="656.795" x2="1496.39" y2="477.507" gradientUnits="userSpaceOnUse">
<stop stop-color="#97C3F9"/>
<stop offset="1" stop-color="#93C1F9"/>
</linearGradient>
<linearGradient id="paint39_linear_133_4" x1="1595.34" y1="646.504" x2="1521.32" y2="467.215" gradientUnits="userSpaceOnUse">
<stop/>
<stop offset="1" stop-color="white"/>
</linearGradient>
<linearGradient id="paint40_linear_133_4" x1="1595.34" y1="646.504" x2="1521.32" y2="467.215" gradientUnits="userSpaceOnUse">
<stop stop-color="#97C3F9"/>
<stop offset="1" stop-color="#93C1F9"/>
</linearGradient>
<linearGradient id="paint41_linear_133_4" x1="1487.12" y1="691.182" x2="1413.1" y2="511.893" gradientUnits="userSpaceOnUse">
<stop/>
<stop offset="1" stop-color="white"/>
</linearGradient>
<linearGradient id="paint42_linear_133_4" x1="1487.12" y1="691.182" x2="1413.1" y2="511.893" gradientUnits="userSpaceOnUse">
<stop stop-color="#97C3F9"/>
<stop offset="1" stop-color="#93C1F9"/>
</linearGradient>
<linearGradient id="paint43_linear_133_4" x1="1512.04" y1="680.89" x2="1438.03" y2="501.602" gradientUnits="userSpaceOnUse">
<stop/>
<stop offset="1" stop-color="white"/>
</linearGradient>
<linearGradient id="paint44_linear_133_4" x1="1512.04" y1="680.89" x2="1438.03" y2="501.602" gradientUnits="userSpaceOnUse">
<stop stop-color="#97C3F9"/>
<stop offset="1" stop-color="#93C1F9"/>
</linearGradient>
<linearGradient id="paint45_linear_133_4" x1="1536.97" y1="670.599" x2="1462.96" y2="491.311" gradientUnits="userSpaceOnUse">
<stop/>
<stop offset="1" stop-color="white"/>
</linearGradient>
<linearGradient id="paint46_linear_133_4" x1="1536.97" y1="670.599" x2="1462.96" y2="491.311" gradientUnits="userSpaceOnUse">
<stop stop-color="#97C3F9"/>
<stop offset="1" stop-color="#93C1F9"/>
</linearGradient>
<linearGradient id="paint47_linear_133_4" x1="1561.9" y1="660.307" x2="1487.88" y2="481.019" gradientUnits="userSpaceOnUse">
<stop/>
<stop offset="1" stop-color="white"/>
</linearGradient>
<linearGradient id="paint48_linear_133_4" x1="1561.9" y1="660.307" x2="1487.88" y2="481.019" gradientUnits="userSpaceOnUse">
<stop stop-color="#97C3F9"/>
<stop offset="1" stop-color="#93C1F9"/>
</linearGradient>
<linearGradient id="paint49_linear_133_4" x1="1586.83" y1="650.016" x2="1512.81" y2="470.727" gradientUnits="userSpaceOnUse">
<stop/>
<stop offset="1" stop-color="white"/>
</linearGradient>
<linearGradient id="paint50_linear_133_4" x1="1586.83" y1="650.016" x2="1512.81" y2="470.727" gradientUnits="userSpaceOnUse">
<stop stop-color="#97C3F9"/>
<stop offset="1" stop-color="#93C1F9"/>
</linearGradient>
<clipPath id="clip0_133_4">
<rect width="898.539" height="667.095" fill="white" transform="matrix(0.924232 0.381831 -0.350206 0.936673 233.621 0)"/>
</clipPath>
</defs>
</svg>
